<?xml version="1.0" standalone="no"?>
<!DOCTYPE svg PUBLIC "-//W3C//DTD SVG 1.1//EN" "http://www.w3.org/Graphics/SVG/1.1/DTD/svg11.dtd"><svg t="1681028600678"
  class="icon" viewBox="0 0 1024 1024" version="1.1" xmlns="http://www.w3.org/2000/svg" p-id="1466"
  xmlns:xlink="http://www.w3.org/1999/xlink" width="200" height="200">
  <path
    d="M960 128a64 64 0 0 1 64 64v640a64 64 0 0 1-64 64H64a64 64 0 0 1-64-64V192a64 64 0 0 1 64-64h896z m0 64H64v640h896V192z m-96 64a32 32 0 0 1 32 32v448a32 32 0 0 1-32 32H160a32 32 0 0 1-32-32V288a32 32 0 0 1 32-32h704z"
    fill="#000000" fill-opacity=".65" p-id="1467"></path>
</svg>